<svg xmlns="http://www.w3.org/2000/svg" viewBox="0 0 1200 675" role="img" aria-label="Yöresel Kıyafetlerde Kumaş Rehberi: Kadife, Saten, Şifon, Jakar ve Payet">
  <defs>
    <linearGradient id="bg" x1="0" y1="0" x2="1" y2="1">
      <stop offset="0" stop-color="#6e1522"/><stop offset="0.6" stop-color="#8e1f2e"/><stop offset="1" stop-color="#a63042"/>
    </linearGradient>
    <g id="bm"><path d="M0-9L7 0 0 9-7 0Z" fill="none" stroke="#f6e3c8" stroke-width="2"/><circle r="2.4" fill="#f6e3c8"/></g>
    <g id="bigm"><path d="M0-9L7 0 0 9-7 0Z" fill="none" stroke="#f2c66d" stroke-width="2"/><circle r="2.4" fill="#f2c66d"/></g>
  </defs>
  <rect width="1200" height="675" fill="url(#bg)"/>
  <use href="#bm" transform="translate(349 570) scale(0.83)" opacity="0.23"/><use href="#bm" transform="translate(612 46) scale(1.19)" opacity="0.23"/><use href="#bm" transform="translate(79 78) scale(0.90)" opacity="0.15"/><use href="#bm" transform="translate(409 608) scale(1.33)" opacity="0.20"/><use href="#bm" transform="translate(377 489) scale(1.51)" opacity="0.12"/><use href="#bm" transform="translate(552 318) scale(0.82)" opacity="0.13"/><use href="#bm" transform="translate(652 434) scale(2.31)" opacity="0.19"/><use href="#bm" transform="translate(269 366) scale(1.91)" opacity="0.19"/><use href="#bm" transform="translate(596 89) scale(1.34)" opacity="0.14"/><use href="#bm" transform="translate(718 485) scale(1.80)" opacity="0.23"/><use href="#bm" transform="translate(1018 197) scale(1.07)" opacity="0.25"/><use href="#bm" transform="translate(1115 414) scale(1.86)" opacity="0.20"/><use href="#bm" transform="translate(1069 157) scale(2.27)" opacity="0.16"/><use href="#bm" transform="translate(109 53) scale(1.07)" opacity="0.23"/><use href="#bm" transform="translate(599 112) scale(0.83)" opacity="0.25"/><use href="#bm" transform="translate(634 98) scale(1.76)" opacity="0.21"/>
  <use href="#bigm" transform="translate(600 315) scale(9)" opacity="0.9"/>
  <use href="#bigm" transform="translate(600 315) scale(14)" opacity="0.25"/>
  <rect y="655" width="1200" height="20" fill="#c08a1d"/>
</svg>