<svg xmlns="http://www.w3.org/2000/svg" viewBox="0 0 800 1000" role="img" aria-label="Bordo kadife zemin üzerine pul ve boncuk işlemeli Serhat kofisi, altın sarısı kenarlıklı geleneksel kadın başlığı">
  
  <defs>
    <linearGradient id="bgg" x1="0" y1="0" x2="0" y2="1">
      <stop offset="0" stop-color="#f6eff0"/>
      <stop offset="1" stop-color="#efe4e6"/>
    </linearGradient>
    <g id="bgm"><path d="M0-9L2.2-2.9 8.6-2.8 3.5 1.1 5.3 7.3 0 3.6-5.3 7.3-3.5 1.1-8.6-2.8-2.2-2.9Z" fill="#e2ced0"/></g>
  </defs>
  <rect width="800" height="1000" fill="url(#bgg)"/>
  <use href="#bgm" transform="translate(506 285) scale(0.92)" opacity="0.35"/><use href="#bgm" transform="translate(48 303) scale(1.34)" opacity="0.35"/><use href="#bgm" transform="translate(181 387) scale(1.27)" opacity="0.35"/><use href="#bgm" transform="translate(376 654) scale(1.70)" opacity="0.35"/><use href="#bgm" transform="translate(507 263) scale(1.18)" opacity="0.35"/><use href="#bgm" transform="translate(398 863) scale(1.22)" opacity="0.35"/><use href="#bgm" transform="translate(58 60) scale(1.36)" opacity="0.35"/><use href="#bgm" transform="translate(669 429) scale(1.07)" opacity="0.35"/><use href="#bgm" transform="translate(532 457) scale(1.13)" opacity="0.35"/><use href="#bgm" transform="translate(368 531) scale(1.64)" opacity="0.35"/>
  <path d="M 136 920 V 300 Q 136 130 400 130 Q 664 130 664 300 V 920"
        fill="none" stroke="#dcbf83" stroke-width="3" opacity="0.5"/>
  <defs><g id="am"><path d="M0-9L2.2-2.9 8.6-2.8 3.5 1.1 5.3 7.3 0 3.6-5.3 7.3-3.5 1.1-8.6-2.8-2.2-2.9Z" fill="#d3ad61"/></g></defs>
  <ellipse cx="400" cy="908" rx="200" ry="24" fill="#26190f" opacity="0.12"/>
  
    <path d="M400 940 V 640" stroke="#8a6a48" stroke-width="10"/>
    <ellipse cx="400" cy="940" rx="90" ry="14" fill="#8a6a48"/>
    <path d="M262 420 C262 360 320 320 400 320 C480 320 538 360 538 420 L538 540 C538 560 520 570 500 570 L300 570 C280 570 262 560 262 540 Z" fill="#7a1f2b"/>
    <ellipse cx="400" cy="420" rx="138" ry="46" fill="#924751" opacity="0.5"/>
    <rect x="262" y="500" width="276" height="44" fill="#5f1822"/>
    <use href="#am" transform="translate(320 522)"/><use href="#am" transform="translate(400 522)"/><use href="#am" transform="translate(480 522)"/>
    <path d="M268 560 V 596" stroke="#c08a1d" stroke-width="2.4"/><circle cx="268" cy="604" r="7" fill="#c08a1d"/><path d="M301 560 V 596" stroke="#c08a1d" stroke-width="2.4"/><circle cx="301" cy="604" r="7" fill="#c08a1d"/><path d="M334 560 V 596" stroke="#c08a1d" stroke-width="2.4"/><circle cx="334" cy="604" r="7" fill="#c08a1d"/><path d="M367 560 V 596" stroke="#c08a1d" stroke-width="2.4"/><circle cx="367" cy="604" r="7" fill="#c08a1d"/><path d="M400 560 V 596" stroke="#c08a1d" stroke-width="2.4"/><circle cx="400" cy="604" r="7" fill="#c08a1d"/><path d="M433 560 V 596" stroke="#c08a1d" stroke-width="2.4"/><circle cx="433" cy="604" r="7" fill="#c08a1d"/><path d="M466 560 V 596" stroke="#c08a1d" stroke-width="2.4"/><circle cx="466" cy="604" r="7" fill="#c08a1d"/><path d="M499 560 V 596" stroke="#c08a1d" stroke-width="2.4"/><circle cx="499" cy="604" r="7" fill="#c08a1d"/><path d="M532 560 V 596" stroke="#c08a1d" stroke-width="2.4"/><circle cx="532" cy="604" r="7" fill="#c08a1d"/>
</svg>