<svg xmlns="http://www.w3.org/2000/svg" viewBox="0 0 800 1000" role="img" aria-label="Koyu kehribar simli dokuma Amed kirasfistanı, gül motifli, geniş dökümlü kollu">
  
  <defs>
    <linearGradient id="bgg" x1="0" y1="0" x2="0" y2="1">
      <stop offset="0" stop-color="#f9f4ee"/>
      <stop offset="1" stop-color="#f5ebe3"/>
    </linearGradient>
    <g id="bgm"><circle cx="0" cy="-5" r="3.2" fill="#ecdbcb"/><circle cx="5" cy="0" r="3.2" fill="#ecdbcb"/><circle cx="0" cy="5" r="3.2" fill="#ecdbcb"/><circle cx="-5" cy="0" r="3.2" fill="#ecdbcb"/><circle r="2.2" fill="#ecdbcb" opacity="0.6"/></g>
  </defs>
  <rect width="800" height="1000" fill="url(#bgg)"/>
  <use href="#bgm" transform="translate(730 649) scale(1.41)" opacity="0.35"/><use href="#bgm" transform="translate(124 362) scale(1.80)" opacity="0.35"/><use href="#bgm" transform="translate(671 488) scale(0.96)" opacity="0.35"/><use href="#bgm" transform="translate(229 185) scale(0.98)" opacity="0.35"/><use href="#bgm" transform="translate(695 47) scale(1.58)" opacity="0.35"/><use href="#bgm" transform="translate(287 292) scale(1.16)" opacity="0.35"/><use href="#bgm" transform="translate(339 348) scale(1.16)" opacity="0.35"/><use href="#bgm" transform="translate(99 307) scale(1.07)" opacity="0.35"/><use href="#bgm" transform="translate(502 931) scale(0.97)" opacity="0.35"/><use href="#bgm" transform="translate(483 308) scale(1.28)" opacity="0.35"/>
  <path d="M 136 920 V 300 Q 136 130 400 130 Q 664 130 664 300 V 920"
        fill="none" stroke="#e7ce91" stroke-width="3" opacity="0.5"/>
  <defs>
    <linearGradient id="skirt" x1="0" y1="0" x2="0" y2="1">
      <stop offset="0" stop-color="#bb8046"/>
      <stop offset="0.55" stop-color="#a85c12"/>
      <stop offset="1" stop-color="#83480e"/>
    </linearGradient>
    <linearGradient id="bodice" x1="0" y1="0" x2="1" y2="1">
      <stop offset="0" stop-color="#bb8046"/>
      <stop offset="1" stop-color="#a85c12"/>
    </linearGradient>
    <linearGradient id="slv" x1="0" y1="0" x2="0" y2="1">
      <stop offset="0" stop-color="#ca893c"/>
      <stop offset="1" stop-color="#9e6117"/>
    </linearGradient>
    <linearGradient id="belt" x1="0" y1="0" x2="1" y2="0">
      <stop offset="0" stop-color="#ddb75f"/>
      <stop offset="0.5" stop-color="#d4a537"/>
      <stop offset="1" stop-color="#ae872d"/>
    </linearGradient>
    <g id="hm"><circle cx="0" cy="-5" r="3.2" fill="#c79b34"/><circle cx="5" cy="0" r="3.2" fill="#c79b34"/><circle cx="0" cy="5" r="3.2" fill="#c79b34"/><circle cx="-5" cy="0" r="3.2" fill="#c79b34"/><circle r="2.2" fill="#c79b34" opacity="0.6"/></g>
    <g id="cm"><circle cx="0" cy="-5" r="3.2" fill="#ddb75f"/><circle cx="5" cy="0" r="3.2" fill="#ddb75f"/><circle cx="0" cy="5" r="3.2" fill="#ddb75f"/><circle cx="-5" cy="0" r="3.2" fill="#ddb75f"/><circle r="2.2" fill="#ddb75f" opacity="0.6"/></g>
  </defs>
  <ellipse cx="400" cy="912" rx="215" ry="26" fill="#26190f" opacity="0.13"/>
  <!-- Etek -->
  <path d="M345 392 C322 520 246 700 168 870 Q 400 912 632 870 C554 700 478 520 455 392 Z" fill="url(#skirt)"/>
  <path d="M345 392 C322 520 246 700 168 870 Q 260 886 320 890 C 300 700 320 520 352 392 Z" fill="#83480e" opacity="0.35"/>
  <path d="M455 392 C478 520 554 700 632 870 Q 540 886 480 890 C 500 700 480 520 448 392 Z" fill="#83480e" opacity="0.35"/>
  <path d="M330 400 C 296.75 540, 300.25 700, 267 862" stroke="#cb9d71" stroke-width="3" fill="none" opacity="0.38"/><path d="M362 400 C 343.95 540, 345.85 700, 327.8 862" stroke="#cb9d71" stroke-width="3" fill="none" opacity="0.38"/><path d="M400 400 C 400 540, 400 700, 400 862" stroke="#cb9d71" stroke-width="3" fill="none" opacity="0.5"/><path d="M438 400 C 456.05 540, 454.15 700, 472.2 862" stroke="#cb9d71" stroke-width="3" fill="none" opacity="0.38"/><path d="M470 400 C 503.25 540, 499.75 700, 533 862" stroke="#cb9d71" stroke-width="3" fill="none" opacity="0.38"/>
  <path d="M190 838 Q 400 878 610 838" fill="none" stroke="#d4a537" stroke-width="6" opacity="0.9"/>
  <use href="#hm" transform="translate(190 838) scale(0.95)"/><use href="#hm" transform="translate(232 844) scale(0.95)"/><use href="#hm" transform="translate(274 849) scale(0.95)"/><use href="#hm" transform="translate(316 852) scale(0.95)"/><use href="#hm" transform="translate(358 854) scale(0.95)"/><use href="#hm" transform="translate(400 855) scale(0.95)"/><use href="#hm" transform="translate(442 854) scale(0.95)"/><use href="#hm" transform="translate(484 852) scale(0.95)"/><use href="#hm" transform="translate(526 849) scale(0.95)"/><use href="#hm" transform="translate(568 844) scale(0.95)"/><use href="#hm" transform="translate(610 838) scale(0.95)"/>
  <!-- Kollar -->
  <path d="M340 214 C270 240 200 330 168 432 C150 486 138 520 126 556 C162 544 198 520 226 488 C264 444 298 378 324 318 C332 288 338 248 340 214 Z" fill="url(#slv)"/>
  <path d="M340 214 C270 240 200 330 168 432 C150 486 138 520 126 556 C162 544 198 520 226 488 C264 444 298 378 324 318 C332 288 338 248 340 214 Z" fill="url(#slv)" transform="translate(800 0) scale(-1 1)"/>
  <!-- Beden -->
  <path d="M338 206 C330 280 336 340 346 392 L454 392 C464 340 470 280 462 206 C438 194 416 190 400 190 C384 190 362 194 338 206 Z" fill="url(#bodice)"/>
  <path d="M368 204 C378 236 390 258 400 268 C410 258 422 236 432 204 C420 198 410 196 400 196 C390 196 380 198 368 204 Z" fill="#573009"/>
  <path d="M368 204 C378 236 390 258 400 268 C410 258 422 236 432 204" fill="none" stroke="#d4a537" stroke-width="3.4"/>
  <circle cx="368" cy="246" r="4.2" fill="#d4a537"/><circle cx="384" cy="250" r="4.2" fill="#d4a537"/><circle cx="400" cy="254" r="4.2" fill="#d4a537"/><circle cx="416" cy="250" r="4.2" fill="#d4a537"/><circle cx="432" cy="246" r="4.2" fill="#d4a537"/>
  <use href="#cm" transform="translate(400 322) scale(1.5)"/>
  <!-- Şûtik kuşak -->
  <rect x="332" y="374" width="136" height="32" rx="9" fill="url(#belt)"/>
  <path d="M340 382 H 462 M340 396 H 462" stroke="#947327" stroke-width="1.6" opacity="0.6"/>
  <path d="M394-9 402 0 394 9 386 0Z" transform="translate(6 390)" fill="#8a6b24"/>
  <path d="M370 404 C 364 440, 368 460, 362 486" stroke="#ddb75f" stroke-width="4" fill="none" stroke-linecap="round"/><path d="M379 404 C 373 440, 377 460, 371 486" stroke="#ddb75f" stroke-width="4" fill="none" stroke-linecap="round"/><path d="M388 404 C 382 440, 386 460, 380 486" stroke="#ddb75f" stroke-width="4" fill="none" stroke-linecap="round"/><path d="M397 404 C 391 440, 395 460, 389 486" stroke="#ddb75f" stroke-width="4" fill="none" stroke-linecap="round"/>
  <path d="M319 574L320.3 577.0 324 579 320.3 580.3 319 584 317.1 580.3 314 579 317.1 577.0Z" fill="#fff" opacity="0.56"/><path d="M381 814L383.1 817.8 387 820 383.1 821.5 381 825 379.4 821.5 375 820 379.4 817.8Z" fill="#fff" opacity="0.55"/><path d="M243 788L243.8 790.6 247 792 243.8 793.1 243 796 241.3 793.1 239 792 241.3 790.6Z" fill="#fff" opacity="0.71"/><path d="M360 386L361.0 387.8 363 389 361.0 389.7 360 392 359.0 389.7 357 389 359.0 387.8Z" fill="#fff" opacity="0.82"/><path d="M465 737L466.2 738.7 468 740 466.2 740.7 465 743 464.2 740.7 462 740 464.2 738.7Z" fill="#fff" opacity="0.51"/><path d="M258 534L258.7 536.0 261 537 258.7 537.8 258 540 256.8 537.8 255 537 256.8 536.0Z" fill="#fff" opacity="0.36"/><path d="M559 785L560.1 787.2 562 788 560.1 789.3 559 792 558.0 789.3 556 788 558.0 787.2Z" fill="#fff" opacity="0.78"/><path d="M293 419L294.2 422.0 298 424 294.2 425.2 293 429 291.0 425.2 288 424 291.0 422.0Z" fill="#fff" opacity="0.80"/><path d="M488 591L489.1 593.8 491 595 489.1 596.0 488 598 486.9 596.0 485 595 486.9 593.8Z" fill="#fff" opacity="0.50"/><path d="M438 570L439.5 573.9 443 576 439.5 577.5 438 581 435.9 577.5 432 576 435.9 573.9Z" fill="#fff" opacity="0.77"/><path d="M460 585L461.9 587.7 465 589 461.9 590.6 460 594 459.0 590.6 456 589 459.0 587.7Z" fill="#fff" opacity="0.49"/><path d="M280 742L281.2 745.4 284 747 281.2 748.2 280 751 278.4 748.2 275 747 278.4 745.4Z" fill="#fff" opacity="0.37"/><path d="M515 781L517.0 784.6 521 786 517.0 787.9 515 791 513.7 787.9 510 786 513.7 784.6Z" fill="#fff" opacity="0.58"/><path d="M449 448L449.5 449.5 451 450 449.5 451.2 449 453 447.7 451.2 446 450 447.7 449.5Z" fill="#fff" opacity="0.40"/><path d="M488 700L488.7 702.6 491 704 488.7 704.9 488 707 486.4 704.9 484 704 486.4 702.6Z" fill="#fff" opacity="0.39"/><path d="M343 560L344.4 563.2 347 565 344.4 566.0 343 569 341.6 566.0 339 565 341.6 563.2Z" fill="#fff" opacity="0.45"/><path d="M302 582L303.2 584.7 306 586 303.2 587.4 302 590 300.5 587.4 298 586 300.5 584.7Z" fill="#fff" opacity="0.40"/><path d="M479 317L481.1 320.9 485 323 481.1 324.6 479 328 477.5 324.6 474 323 477.5 320.9Z" fill="#fff" opacity="0.72"/><path d="M466 551L467.3 554.1 470 555 467.3 556.8 466 560 464.5 556.8 462 555 464.5 554.1Z" fill="#fff" opacity="0.80"/><path d="M283 756L284.6 758.6 287 760 284.6 760.8 283 763 282.4 760.8 280 760 282.4 758.6Z" fill="#fff" opacity="0.57"/><path d="M488 658L488.8 659.9 491 661 488.8 661.7 488 664 487.0 661.7 485 661 487.0 659.9Z" fill="#fff" opacity="0.45"/><path d="M358 527L359.5 530.7 363 532 359.5 533.9 358 537 356.3 533.9 353 532 356.3 530.7Z" fill="#fff" opacity="0.84"/><path d="M243 539L244.7 541.8 248 543 244.7 544.6 243 548 241.8 544.6 239 543 241.8 541.8Z" fill="#fff" opacity="0.67"/><path d="M529 734L531.0 738.2 535 740 531.0 741.9 529 746 527.3 741.9 523 740 527.3 738.2Z" fill="#fff" opacity="0.42"/><path d="M438 749L439.3 753.1 443 755 439.3 756.7 438 760 435.7 756.7 432 755 435.7 753.1Z" fill="#fff" opacity="0.81"/><path d="M521 654L522.0 656.5 525 658 522.0 658.9 521 662 519.6 658.9 517 658 519.6 656.5Z" fill="#fff" opacity="0.41"/><path d="M405 357L406.5 361.1 410 363 406.5 364.4 405 368 403.1 364.4 399 363 403.1 361.1Z" fill="#fff" opacity="0.76"/><path d="M361 638L362.2 640.6 364 642 362.2 642.6 361 645 360.2 642.6 358 642 360.2 640.6Z" fill="#fff" opacity="0.80"/><path d="M362 424L363.7 427.8 367 429 363.7 431.0 362 434 360.6 431.0 357 429 360.6 427.8Z" fill="#fff" opacity="0.81"/><path d="M242 320L243.2 321.8 245 323 243.2 323.8 242 326 241.2 323.8 239 323 241.2 321.8Z" fill="#fff" opacity="0.48"/>
</svg>