<svg xmlns="http://www.w3.org/2000/svg" viewBox="0 0 800 1000" role="img" aria-label="Füme tiftik dokuma şal û şepik takımı, bordo şûtik kuşaklı, Hekarî yöresi geleneksel erkek kıyafeti">
  
  <defs>
    <linearGradient id="bgg" x1="0" y1="0" x2="0" y2="1">
      <stop offset="0" stop-color="#f2f3f3"/>
      <stop offset="1" stop-color="#e9eaeb"/>
    </linearGradient>
    <g id="bgm"><path d="M-8-2L0-8 8-2" fill="none" stroke="#d7d9da" stroke-width="2.4" stroke-linecap="round"/><path d="M-8 5L0-1 8 5" fill="none" stroke="#d7d9da" stroke-width="2.4" stroke-linecap="round"/></g>
  </defs>
  <rect width="800" height="1000" fill="url(#bgg)"/>
  <use href="#bgm" transform="translate(447 689) scale(1.21)" opacity="0.35"/><use href="#bgm" transform="translate(387 275) scale(1.78)" opacity="0.35"/><use href="#bgm" transform="translate(610 416) scale(1.50)" opacity="0.35"/><use href="#bgm" transform="translate(294 876) scale(1.77)" opacity="0.35"/><use href="#bgm" transform="translate(244 302) scale(1.79)" opacity="0.35"/><use href="#bgm" transform="translate(723 618) scale(1.44)" opacity="0.35"/><use href="#bgm" transform="translate(340 306) scale(1.22)" opacity="0.35"/><use href="#bgm" transform="translate(220 950) scale(1.33)" opacity="0.35"/><use href="#bgm" transform="translate(327 48) scale(0.90)" opacity="0.35"/><use href="#bgm" transform="translate(597 341) scale(1.62)" opacity="0.35"/>
  <path d="M 136 920 V 300 Q 136 130 400 130 Q 664 130 664 300 V 920"
        fill="none" stroke="#d4939a" stroke-width="3" opacity="0.5"/>
  <defs>
    <linearGradient id="jak" x1="0" y1="0" x2="0" y2="1">
      <stop offset="0" stop-color="#676e74"/><stop offset="1" stop-color="#4a5259"/>
    </linearGradient>
    <linearGradient id="pant" x1="0" y1="0" x2="0" y2="1">
      <stop offset="0" stop-color="#4a5259"/><stop offset="1" stop-color="#383e44"/>
    </linearGradient>
    <pattern id="weave" width="14" height="14" patternUnits="userSpaceOnUse" patternTransform="rotate(45)">
      <rect width="14" height="14" fill="none"/>
      <path d="M0 0H14" stroke="#80868b" stroke-width="1" opacity="0.35"/>
    </pattern>
    <linearGradient id="belt2" x1="0" y1="0" x2="1" y2="0">
      <stop offset="0" stop-color="#be5d69"/><stop offset="1" stop-color="#97323e"/>
    </linearGradient>
    <g id="hm2"><path d="M-8-2L0-8 8-2" fill="none" stroke="#a23542" stroke-width="2.4" stroke-linecap="round"/><path d="M-8 5L0-1 8 5" fill="none" stroke="#a23542" stroke-width="2.4" stroke-linecap="round"/></g>
  </defs>
  <ellipse cx="400" cy="912" rx="200" ry="24" fill="#26190f" opacity="0.13"/>
  <!-- Şal (pantolon) -->
  <path d="M320 500 C300 600 292 700 288 830 C288 852 300 862 322 862 L364 862 C382 862 390 852 392 832 L400 640 L408 832 C410 852 418 862 436 862 L478 862 C500 862 512 852 512 830 C508 700 500 600 480 500 Z" fill="url(#pant)"/>
  <path d="M320 500 C300 600 292 700 288 830 C288 852 300 862 322 862 L364 862 C382 862 390 852 392 832 L400 640 L408 832 C410 852 418 862 436 862 L478 862 C500 862 512 852 512 830 C508 700 500 600 480 500 Z" fill="url(#weave)"/>
  <rect x="292" y="838" width="96" height="18" rx="6" fill="#383e44"/>
  <rect x="412" y="838" width="96" height="18" rx="6" fill="#383e44"/>
  <!-- Gömlek -->
  <path d="M360 230 L440 230 L432 330 L368 330 Z" fill="#bdc1c4"/>
  <!-- Şepik (ceket) -->
  <path d="M330 218 C310 300 306 400 314 500 L378 500 L372 350 L390 250 L360 226 Z" fill="url(#jak)"/>
  <path d="M470 218 C490 300 494 400 486 500 L422 500 L428 350 L410 250 L440 226 Z" fill="url(#jak)"/>
  <path d="M330 218 C310 300 306 400 314 500 L378 500 L372 350 L390 250 L360 226 Z" fill="url(#weave)"/>
  <path d="M470 218 C490 300 494 400 486 500 L422 500 L428 350 L410 250 L440 226 Z" fill="url(#weave)"/>
  <!-- Yaka -->
  <path d="M360 226 L390 250 L400 232 L410 250 L440 226 L420 210 L400 216 L380 210 Z" fill="#383e44"/>
  <!-- Kollar -->
  <path d="M330 222 C296 250 274 320 262 420 C258 452 258 478 262 502 C286 500 304 490 316 472 C322 400 326 310 334 240 Z" fill="url(#jak)"/>
  <path d="M470 222 C504 250 526 320 538 420 C542 452 542 478 538 502 C514 500 496 490 484 472 C478 400 474 310 466 240 Z" fill="url(#jak)"/>
  <!-- Şûtik kuşak -->
  <rect x="318" y="486" width="164" height="40" rx="10" fill="url(#belt2)"/>
  <path d="M326 498 H 474 M326 512 H 474" stroke="#782731" stroke-width="2" opacity="0.55"/>
  <use href="#hm2" transform="translate(400 506) scale(1.05)"/>
  <path d="M452 522 C460 560 456 590 464 622" stroke="#9e3441" stroke-width="7" fill="none" stroke-linecap="round"/>
  <path d="M466 522 C476 556 472 586 480 614" stroke="#b64a57" stroke-width="6" fill="none" stroke-linecap="round"/>
</svg>