<svg xmlns="http://www.w3.org/2000/svg" viewBox="0 0 800 1000" role="img" aria-label="Zümrüt yeşili saten Serhat kirasfistanı, sim işlemeli dökümlü kollu, altın şûtik kuşaklı">
  
  <defs>
    <linearGradient id="bgg" x1="0" y1="0" x2="0" y2="1">
      <stop offset="0" stop-color="#eef5f3"/>
      <stop offset="1" stop-color="#e3eeea"/>
    </linearGradient>
    <g id="bgm"><path d="M0-9L7 0 0 9-7 0Z" fill="none" stroke="#cbe0d8" stroke-width="2"/><circle r="2.4" fill="#cbe0d8"/></g>
  </defs>
  <rect width="800" height="1000" fill="url(#bgg)"/>
  <use href="#bgm" transform="translate(225 574) scale(1.32)" opacity="0.35"/><use href="#bgm" transform="translate(140 886) scale(1.54)" opacity="0.35"/><use href="#bgm" transform="translate(230 592) scale(1.58)" opacity="0.35"/><use href="#bgm" transform="translate(594 727) scale(1.20)" opacity="0.35"/><use href="#bgm" transform="translate(405 156) scale(0.95)" opacity="0.35"/><use href="#bgm" transform="translate(688 460) scale(1.56)" opacity="0.35"/><use href="#bgm" transform="translate(166 617) scale(1.06)" opacity="0.35"/><use href="#bgm" transform="translate(40 622) scale(1.44)" opacity="0.35"/><use href="#bgm" transform="translate(538 596) scale(1.76)" opacity="0.35"/><use href="#bgm" transform="translate(286 275) scale(1.28)" opacity="0.35"/>
  <path d="M 136 920 V 300 Q 136 130 400 130 Q 664 130 664 300 V 920"
        fill="none" stroke="#dcbf83" stroke-width="3" opacity="0.5"/>
  <defs>
    <linearGradient id="skirt" x1="0" y1="0" x2="0" y2="1">
      <stop offset="0" stop-color="#468f76"/>
      <stop offset="0.55" stop-color="#12704f"/>
      <stop offset="1" stop-color="#0e573e"/>
    </linearGradient>
    <linearGradient id="bodice" x1="0" y1="0" x2="1" y2="1">
      <stop offset="0" stop-color="#468f76"/>
      <stop offset="1" stop-color="#12704f"/>
    </linearGradient>
    <linearGradient id="slv" x1="0" y1="0" x2="0" y2="1">
      <stop offset="0" stop-color="#2d7159"/>
      <stop offset="1" stop-color="#094a33"/>
    </linearGradient>
    <linearGradient id="belt" x1="0" y1="0" x2="1" y2="0">
      <stop offset="0" stop-color="#cda14a"/>
      <stop offset="0.5" stop-color="#c08a1d"/>
      <stop offset="1" stop-color="#9d7118"/>
    </linearGradient>
    <g id="hm"><path d="M0-9L7 0 0 9-7 0Z" fill="none" stroke="#b4821b" stroke-width="2"/><circle r="2.4" fill="#b4821b"/></g>
    <g id="cm"><path d="M0-9L7 0 0 9-7 0Z" fill="none" stroke="#cda14a" stroke-width="2"/><circle r="2.4" fill="#cda14a"/></g>
  </defs>
  <ellipse cx="400" cy="912" rx="215" ry="26" fill="#26190f" opacity="0.13"/>
  <!-- Etek -->
  <path d="M345 392 C322 520 246 700 168 870 Q 400 912 632 870 C554 700 478 520 455 392 Z" fill="url(#skirt)"/>
  <path d="M345 392 C322 520 246 700 168 870 Q 260 886 320 890 C 300 700 320 520 352 392 Z" fill="#0e573e" opacity="0.35"/>
  <path d="M455 392 C478 520 554 700 632 870 Q 540 886 480 890 C 500 700 480 520 448 392 Z" fill="#0e573e" opacity="0.35"/>
  <path d="M330 400 C 296.75 540, 300.25 700, 267 862" stroke="#71a995" stroke-width="3" fill="none" opacity="0.38"/><path d="M362 400 C 343.95 540, 345.85 700, 327.8 862" stroke="#71a995" stroke-width="3" fill="none" opacity="0.38"/><path d="M400 400 C 400 540, 400 700, 400 862" stroke="#71a995" stroke-width="3" fill="none" opacity="0.5"/><path d="M438 400 C 456.05 540, 454.15 700, 472.2 862" stroke="#71a995" stroke-width="3" fill="none" opacity="0.38"/><path d="M470 400 C 503.25 540, 499.75 700, 533 862" stroke="#71a995" stroke-width="3" fill="none" opacity="0.38"/>
  <path d="M190 838 Q 400 878 610 838" fill="none" stroke="#c08a1d" stroke-width="6" opacity="0.9"/>
  <use href="#hm" transform="translate(190 838) scale(0.95)"/><use href="#hm" transform="translate(232 844) scale(0.95)"/><use href="#hm" transform="translate(274 849) scale(0.95)"/><use href="#hm" transform="translate(316 852) scale(0.95)"/><use href="#hm" transform="translate(358 854) scale(0.95)"/><use href="#hm" transform="translate(400 855) scale(0.95)"/><use href="#hm" transform="translate(442 854) scale(0.95)"/><use href="#hm" transform="translate(484 852) scale(0.95)"/><use href="#hm" transform="translate(526 849) scale(0.95)"/><use href="#hm" transform="translate(568 844) scale(0.95)"/><use href="#hm" transform="translate(610 838) scale(0.95)"/>
  <!-- Kollar -->
  <path d="M340 214 C270 240 200 330 168 432 C150 486 138 520 126 556 C162 544 198 520 226 488 C264 444 298 378 324 318 C332 288 338 248 340 214 Z" fill="url(#slv)"/>
  <path d="M340 214 C270 240 200 330 168 432 C150 486 138 520 126 556 C162 544 198 520 226 488 C264 444 298 378 324 318 C332 288 338 248 340 214 Z" fill="url(#slv)" transform="translate(800 0) scale(-1 1)"/>
  <!-- Beden -->
  <path d="M338 206 C330 280 336 340 346 392 L454 392 C464 340 470 280 462 206 C438 194 416 190 400 190 C384 190 362 194 338 206 Z" fill="url(#bodice)"/>
  <path d="M368 204 C378 236 390 258 400 268 C410 258 422 236 432 204 C420 198 410 196 400 196 C390 196 380 198 368 204 Z" fill="#093a29"/>
  <path d="M368 204 C378 236 390 258 400 268 C410 258 422 236 432 204" fill="none" stroke="#c08a1d" stroke-width="3.4"/>
  <circle cx="368" cy="246" r="4.2" fill="#c08a1d"/><circle cx="384" cy="250" r="4.2" fill="#c08a1d"/><circle cx="400" cy="254" r="4.2" fill="#c08a1d"/><circle cx="416" cy="250" r="4.2" fill="#c08a1d"/><circle cx="432" cy="246" r="4.2" fill="#c08a1d"/>
  <use href="#cm" transform="translate(400 322) scale(1.5)"/>
  <!-- Şûtik kuşak -->
  <rect x="332" y="374" width="136" height="32" rx="9" fill="url(#belt)"/>
  <path d="M340 382 H 462 M340 396 H 462" stroke="#866114" stroke-width="1.6" opacity="0.6"/>
  <path d="M394-9 402 0 394 9 386 0Z" transform="translate(6 390)" fill="#7d5a13"/>
  <path d="M370 404 C 364 440, 368 460, 362 486" stroke="#cda14a" stroke-width="4" fill="none" stroke-linecap="round"/><path d="M379 404 C 373 440, 377 460, 371 486" stroke="#cda14a" stroke-width="4" fill="none" stroke-linecap="round"/><path d="M388 404 C 382 440, 386 460, 380 486" stroke="#cda14a" stroke-width="4" fill="none" stroke-linecap="round"/><path d="M397 404 C 391 440, 395 460, 389 486" stroke="#cda14a" stroke-width="4" fill="none" stroke-linecap="round"/>
  <path d="M494 438L494.8 440.3 497 441 494.8 442.4 494 445 492.6 442.4 490 441 492.6 440.3Z" fill="#fff" opacity="0.59"/><path d="M464 494L464.5 495.5 466 496 464.5 497.3 464 499 462.7 497.3 461 496 462.7 495.5Z" fill="#fff" opacity="0.57"/><path d="M265 595L266.2 596.8 268 598 266.2 598.5 265 600 264.4 598.5 263 598 264.4 596.8Z" fill="#fff" opacity="0.43"/><path d="M349 366L349.8 368.6 352 370 349.8 371.0 349 373 347.4 371.0 345 370 347.4 368.6Z" fill="#fff" opacity="0.53"/><path d="M455 754L455.9 755.6 458 757 455.9 757.4 455 759 454.2 757.4 452 757 454.2 755.6Z" fill="#fff" opacity="0.75"/><path d="M363 432L363.5 433.8 365 435 363.5 435.6 363 437 361.8 435.6 360 435 361.8 433.8Z" fill="#fff" opacity="0.61"/><path d="M309 421L309.8 422.8 312 424 309.8 424.4 309 426 308.2 424.4 306 424 308.2 422.8Z" fill="#fff" opacity="0.73"/><path d="M377 298L377.4 299.9 379 301 377.4 301.6 377 303 375.7 301.6 374 301 375.7 299.9Z" fill="#fff" opacity="0.64"/><path d="M406 374L407.3 376.3 409 377 407.3 378.1 406 380 405.5 378.1 404 377 405.5 376.3Z" fill="#fff" opacity="0.84"/><path d="M388 694L389.6 697.3 393 699 389.6 700.3 388 703 386.7 700.3 384 699 386.7 697.3Z" fill="#fff" opacity="0.42"/><path d="M400 520L400.4 522.0 402 523 400.4 523.6 400 525 398.8 523.6 397 523 398.8 522.0Z" fill="#fff" opacity="0.70"/><path d="M453 646L454.7 649.0 457 650 454.7 651.6 453 654 452.1 651.6 449 650 452.1 649.0Z" fill="#fff" opacity="0.71"/><path d="M379 357L380.2 360.4 384 362 380.2 363.6 379 367 377.0 363.6 374 362 377.0 360.4Z" fill="#fff" opacity="0.70"/><path d="M266 498L266.8 500.7 269 502 266.8 502.8 266 505 264.7 502.8 262 502 264.7 500.7Z" fill="#fff" opacity="0.76"/><path d="M551 652L552.4 655.6 556 657 552.4 659.3 551 663 548.7 659.3 545 657 548.7 655.6Z" fill="#fff" opacity="0.59"/><path d="M485 524L486.3 526.4 489 528 486.3 529.0 485 532 483.6 529.0 481 528 483.6 526.4Z" fill="#fff" opacity="0.66"/><path d="M539 515L539.6 516.9 542 518 539.6 518.8 539 521 537.7 518.8 536 518 537.7 516.9Z" fill="#fff" opacity="0.41"/><path d="M428 384L429.5 386.7 432 388 429.5 389.4 428 392 426.8 389.4 424 388 426.8 386.7Z" fill="#fff" opacity="0.42"/><path d="M480 505L481.5 507.7 484 509 481.5 510.4 480 513 478.8 510.4 476 509 478.8 507.7Z" fill="#fff" opacity="0.56"/><path d="M521 564L522.4 566.4 525 568 522.4 569.1 521 572 519.8 569.1 517 568 519.8 566.4Z" fill="#fff" opacity="0.85"/><path d="M443 303L444.2 305.4 447 307 444.2 307.6 443 310 442.0 307.6 440 307 442.0 305.4Z" fill="#fff" opacity="0.54"/><path d="M340 449L340.6 451.3 343 452 340.6 453.4 340 456 338.5 453.4 336 452 338.5 451.3Z" fill="#fff" opacity="0.52"/><path d="M257 480L259.1 483.3 262 485 259.1 486.5 257 490 255.9 486.5 253 485 255.9 483.3Z" fill="#fff" opacity="0.51"/><path d="M494 434L495.2 436.6 497 438 495.2 438.6 494 441 493.3 438.6 491 438 493.3 436.6Z" fill="#fff" opacity="0.54"/><path d="M511 459L512.3 462.2 516 464 512.3 465.5 511 469 509.0 465.5 505 464 509.0 462.2Z" fill="#fff" opacity="0.49"/><path d="M485 533L485.6 534.7 487 535 485.6 536.2 485 538 484.0 536.2 482 535 484.0 534.7Z" fill="#fff" opacity="0.73"/><path d="M399 407L399.9 409.1 402 410 399.9 411.3 399 414 397.7 411.3 395 410 397.7 409.1Z" fill="#fff" opacity="0.50"/><path d="M501 549L502.4 552.0 505 553 502.4 554.6 501 557 499.9 554.6 497 553 499.9 552.0Z" fill="#fff" opacity="0.82"/><path d="M242 667L243.4 669.9 246 671 243.4 672.2 242 675 241.1 672.2 239 671 241.1 669.9Z" fill="#fff" opacity="0.42"/><path d="M481 353L482.3 355.3 485 357 482.3 357.7 481 360 479.9 357.7 477 357 479.9 355.3Z" fill="#fff" opacity="0.60"/>
</svg>